<svg width="12" height="12" viewBox="0 0 12 12" fill="none" xmlns="http://www.w3.org/2000/svg">
<path d="M11.8407 0.511872C11.8353 0.420131 11.7965 0.33355 11.7315 0.268569C11.6665 0.203588 11.5799 0.164729 11.4882 0.159372C6.77695 -0.118128 3.00883 1.29437 1.4082 3.9375C0.318202 5.73687 0.360702 7.8625 1.52008 9.95L0.235077 11.235C0.198233 11.2693 0.168682 11.3107 0.148186 11.3567C0.12769 11.4027 0.116669 11.4524 0.115781 11.5027C0.114893 11.5531 0.124155 11.6031 0.143015 11.6498C0.161876 11.6965 0.189948 11.7389 0.225558 11.7745C0.261167 11.8101 0.303584 11.8382 0.350278 11.8571C0.396972 11.8759 0.446987 11.8852 0.497338 11.8843C0.547689 11.8834 0.597346 11.8724 0.643346 11.8519C0.689345 11.8314 0.730746 11.8018 0.765077 11.765L2.05008 10.48C3.12945 11.0794 4.21883 11.3806 5.2682 11.3806C6.25466 11.381 7.22193 11.108 8.06258 10.5919C10.7057 8.99125 12.1176 5.22312 11.8407 0.511872ZM7.67445 9.94937C6.16945 10.8606 4.38445 10.8475 2.60383 9.925L8.2657 4.26312C8.33194 4.19204 8.368 4.09801 8.36629 4.00086C8.36458 3.90371 8.32522 3.81102 8.25651 3.74231C8.18781 3.67361 8.09511 3.63425 7.99796 3.63253C7.90081 3.63082 7.80679 3.66688 7.7357 3.73312L2.07383 9.39625C1.15133 7.61562 1.13633 5.83375 2.04945 4.32562C3.46695 1.98625 6.83883 0.713122 11.112 0.891247C11.287 5.16125 10.0138 8.53375 7.67445 9.95062V9.94937Z" fill="#EFE7D2"/>
</svg>
